<svg width="36" height="35" viewBox="0 0 36 35" fill="none" xmlns="http://www.w3.org/2000/svg">
<g id="Architectural" clip-path="url(#clip0_415_153)">
<path id="Vector" d="M28.0058 10.8322L35.9479 7.49458L18.099 0L0.87207 7.49458L8.53354 10.8322L0.87207 14.1623L8.53354 17.5L0.87207 20.8301L8.54112 24.1678L0.87207 27.5054L18.099 35L35.9479 27.5054L27.9982 24.1678L35.9479 20.8301L28.0058 17.5L35.9479 14.1623L28.0058 10.8322ZM4.67246 7.49458L18.1142 1.65366L32.0262 7.49458L26.0487 10.0054L24.0916 10.8322L18.1142 13.3431H18.099L12.3415 10.8322L10.4375 10.0054L4.67246 7.49458ZM32.0262 27.5054L18.1142 33.3463L4.67246 27.5054L10.4451 24.9946L18.099 28.3247L26.0411 24.987L32.0262 27.5054ZM32.0262 20.8301L26.0411 23.3485L24.084 24.1678L18.1142 26.6786L12.3415 24.1678L10.4451 23.3409L4.67246 20.8301L10.4375 18.3268L16.2102 20.8377L18.099 21.6569L20.0561 20.8377L26.0487 18.3192L32.0262 20.8301ZM26.0487 16.6732L24.0916 17.5L18.1142 20.0108L12.3415 17.5L10.4375 16.6732L4.67246 14.1623L10.4375 11.6591L16.195 14.1623L18.099 14.9892L20.0712 14.1623L26.0487 11.6515L32.0262 14.1623L26.0487 16.6732Z" fill="black"/>
</g>
<defs>
<clipPath id="clip0_415_153">
<rect width="35.0759" height="35" fill="white" transform="translate(0.87207)"/>
</clipPath>
</defs>
</svg>
