<svg width="36" height="35" viewBox="0 0 36 35" fill="none" xmlns="http://www.w3.org/2000/svg">
<g id="Civil">
<path id="Vector" d="M18.6176 0.436935L17.8721 0L17.1265 0.436935L2.87207 8.74623V26.2462L17.1265 34.5631L17.8721 35L18.6176 34.5631L32.8721 26.2462V8.74623L18.6176 0.436935ZM19.3258 17.5678L31.381 10.6823V24.491L19.3258 17.5603V17.5678ZM16.299 17.5678L4.36312 24.378V10.7049L16.299 17.5603V17.5678ZM30.7995 9.28864L18.6176 16.2419V2.17714L30.7995 9.2811V9.28864ZM17.1265 16.3097L4.92227 9.29617L17.1265 2.17714V16.3022V16.3097ZM4.98937 25.749L17.1265 18.8183V32.8229L4.98937 25.749ZM18.6176 18.8937L30.6504 25.8093L18.6176 32.8304V18.9012V18.8937Z" fill="black"/>
</g>
</svg>
