<svg width="36" height="35" viewBox="0 0 36 35" fill="none" xmlns="http://www.w3.org/2000/svg">
<g id="Industrial" clip-path="url(#clip0_415_407)">
<path id="wgjjvkqbcz-Path 28" d="M18.3721 0L0.87207 17.5L18.3721 35L35.8721 17.5L18.3721 0ZM13.1001 16.7263L18.3721 3.2163L23.6441 16.7263H13.1001ZM23.5986 18.2737L18.3721 31.7685L13.1456 18.2737H23.6061H23.5986ZM11.4388 16.7263H3.83046L16.3088 4.24036L11.4388 16.7187V16.7263ZM11.4843 18.2737L16.324 30.7672L3.83046 18.2737H11.4843ZM25.2598 18.2737H32.9137L20.4126 30.7672L25.2522 18.2737H25.2598ZM25.3053 16.7263L20.4354 4.24794L32.9213 16.7263H25.3053Z" fill="black"/>
</g>
<defs>
<clipPath id="clip0_415_407">
<rect width="35" height="35" fill="white" transform="translate(0.87207)"/>
</clipPath>
</defs>
</svg>
