<svg width="200" height="40" viewBox="0 0 200 40" fill="none" xmlns="http://www.w3.org/2000/svg">
<g id="Group">
<path id="Vector" d="M191.537 5.01629C191.537 2.85592 193.29 1.07679 195.476 1.07679C197.637 1.07679 199.416 2.8305 199.416 5.01629C199.416 7.17667 197.662 8.9558 195.476 8.9558C193.29 8.93039 191.537 7.17667 191.537 5.01629ZM190.901 5.01629C190.901 7.5325 192.935 9.56579 195.451 9.56579C197.967 9.56579 200 7.5325 200 5.01629C200 2.50009 197.967 0.466797 195.451 0.466797C192.935 0.466797 190.901 2.47468 190.901 4.99088V5.01629ZM196.722 5.52462V5.39754C197.408 5.27046 197.891 4.68588 197.865 3.99965C197.891 3.16091 197.23 2.50009 196.391 2.47467C196.34 2.47467 196.264 2.47467 196.213 2.47467H193.697L193.57 2.60176V7.43083L193.697 7.55791H194.205L194.333 7.43083V5.6517L194.46 5.52462H195.73L195.985 5.6517L197.255 7.43083L197.51 7.55791H197.637L197.764 7.43083V6.92251L196.722 5.52462ZM197.103 3.99965C197.128 4.43172 196.798 4.83838 196.366 4.8638C196.315 4.8638 196.29 4.8638 196.239 4.8638H194.51L194.383 4.73672V3.23716L194.51 3.11008H196.239C196.671 3.05925 197.052 3.38966 197.103 3.82173C197.103 3.89798 197.103 3.94881 197.103 3.99965Z" fill="#F80102"/>
<path id="Vector_2" d="M26.1024 2.47461L26.6108 3.00835L33.3969 27.0012H33.9306L39.1409 3.00835L39.6493 2.47461H44.8596L45.3933 3.00835V8.21867L37.5651 38.4894L37.0568 38.9977H30.2707L29.7369 38.4894L22.9508 13.4544H22.4425L15.6564 38.4894L15.1226 38.9977H8.33651L7.82819 38.4894L0 8.21867V3.00835L0.508324 2.47461H5.74406L6.25238 3.00835L11.4881 27.0012H11.9964L18.7826 3.00835L19.3163 2.47461H26.1024Z" fill="#F80102"/>
<path id="Vector_3" d="M71.4959 28.0431L70.9876 28.5768H54.8229L54.3145 29.0852C54.3145 30.1272 55.3566 33.2534 59.4994 33.2534C61.0752 33.2534 62.6256 32.7451 63.1594 31.703L63.6931 31.1693H69.8947L70.4284 31.703C69.8947 34.8292 67.3022 39.4804 59.474 39.4804C50.6292 39.5312 46.4609 33.228 46.4609 25.959C46.4609 18.6899 50.6292 12.3867 58.9911 12.3867C67.353 12.3867 71.4959 18.6391 71.4959 25.959V28.0431ZM63.6931 22.8582C63.3881 20.2657 61.0244 18.4104 58.432 18.7408C56.2716 18.9949 54.5687 20.6978 54.3145 22.8582L54.8229 23.3665H63.1594L63.6931 22.8582Z" fill="#F80102"/>
<path id="Vector_4" d="M82.958 38.9977H76.7056L76.1719 38.4894V3.00835L76.7056 2.47461H82.958L83.4917 3.00835V38.4894L82.958 38.9977Z" fill="#F80102"/>
<path id="Vector_5" d="M99.6317 12.4123C104.334 12.4123 106.418 15.0048 106.418 15.0048H106.926V3.00832L107.46 2.5H113.712L114.246 3.00832V38.4639L113.712 38.9722H107.968L107.46 38.4639L106.926 36.8881H106.418C106.418 36.8881 104.334 39.4806 99.6317 39.4806C93.3793 39.4806 88.1436 34.2957 88.1436 25.9083C88.1436 17.521 93.3285 12.3361 99.6317 12.3361M101.233 33.2282C105.401 33.2282 106.977 30.102 106.977 25.9337C106.977 21.7655 105.401 18.6393 101.233 18.6393C97.0646 18.6393 95.4888 21.7655 95.4888 25.9337C95.4888 30.102 97.0392 33.2282 101.233 33.2282Z" fill="#F80102"/>
<path id="Vector_6" d="M127.31 38.9977H121.057L120.523 38.4894V3.00835L121.057 2.47461H127.31L127.843 3.00835V38.4894L127.31 38.9977Z" fill="#F80102"/>
<path id="Vector_7" d="M145.584 39.5312C137.756 39.5312 132.546 34.3463 132.546 25.959C132.546 17.5716 137.731 12.3867 145.584 12.3867C153.438 12.3867 158.623 17.6479 158.623 25.959C158.623 34.2701 153.438 39.5312 145.584 39.5312ZM145.584 18.6645C141.924 18.6645 139.84 21.257 139.84 25.959C139.84 30.661 141.924 33.228 145.584 33.228C149.244 33.228 151.328 30.6355 151.328 25.9335C151.328 21.2316 149.244 18.6391 145.584 18.6391" fill="#F80102"/>
<path id="Vector_8" d="M186.275 38.9977H183.149L182.107 38.4894L174.812 30.6612H174.279L171.152 33.7874L170.619 34.8294V38.4894L170.11 38.9977H163.858L163.324 38.4894V3.00835L163.858 2.47461H170.11L170.619 3.00835V23.875H171.152L181.573 13.4544L182.641 12.9207H185.767L186.275 13.4544V18.6647L180.023 24.9171V25.4508L186.809 33.279V38.4894L186.275 38.9977Z" fill="#F80102"/>
</g>
</svg>
