<svg width="32" height="32" viewBox="0 0 32 32" fill="none" xmlns="http://www.w3.org/2000/svg">
<g id="pdf (1) 1">
<g id="Group">
<path id="Vector" d="M3.99998 0H20.9929L29.9999 8.97203V30C29.9999 31.105 29.104 32 28 32H3.99998C2.89595 32 2 31.105 2 30V1.99998C2 0.89502 2.89605 0 3.99998 0Z" fill="#E2574C"/>
<path id="Vector_2" d="M29.9711 9.00001H23C21.896 9.00001 21.0001 8.10406 21.0001 7.00003V0.0200195L29.9711 9.00001Z" fill="#B53629"/>
<path id="Vector_3" d="M22.498 15.163C22.833 15.163 22.997 14.871 22.997 14.588C22.997 14.295 22.826 14.012 22.498 14.012H20.59C20.217 14.012 20.009 14.3209 20.009 14.662V19.3509C20.009 19.769 20.247 20.0009 20.569 20.0009C20.889 20.0009 21.1281 19.769 21.1281 19.3509V18.064H22.2821C22.6401 18.064 22.8191 17.7709 22.8191 17.48C22.8191 17.195 22.6401 16.9119 22.2821 16.9119H21.1281V15.163H22.498ZM16.049 14.012H14.653C14.274 14.012 14.0049 14.272 14.0049 14.6579V19.355C14.0049 19.8339 14.3919 19.984 14.6689 19.984H16.1339C17.8679 19.984 19.0129 18.843 19.0129 17.0819C19.012 15.22 17.934 14.012 16.049 14.012ZM16.1161 18.826H15.265V15.17H16.032C17.1931 15.17 17.698 15.949 17.698 17.024C17.698 18.03 17.202 18.826 16.1161 18.826ZM11.002 14.012H9.61904C9.22802 14.012 9.01001 14.2699 9.01001 14.662V19.3509C9.01001 19.769 9.25999 20.0009 9.59596 20.0009C9.93193 20.0009 10.1819 19.769 10.1819 19.3509V17.9819H11.0489C12.1189 17.9819 13.0019 17.2239 13.0019 16.0049C13.002 14.812 12.15 14.012 11.002 14.012ZM10.9791 16.882H10.182V15.113H10.9791C11.4711 15.113 11.7841 15.497 11.7841 15.998C11.783 16.498 11.4711 16.882 10.9791 16.882Z" fill="white"/>
</g>
</g>
</svg>
